# xmcd
#
# Track frame offsets: 
#        150
#        11692
#        24037
#        35274
#        47554
#        62507
#        72952
#        85552
#        97255
#        109100
#        121758
#        135813
#        147600
#        161143
#        175288
#        185315
#        198118
#        211806
#        224876
#        242813
#        254931
#        267761
#        283576
#        298146
#        311806
#        326753
#        338823
#
# Disc length: 4709 seconds
#
# Revision: 1
# Processed by: cddbd v1.5.2PL0 Copyright (c) Steve Scherf et al.
# Submitted via: ExactAudioCopy v1.3
#
DISCID=9812631b
DTITLE=Muddy Waters - Akella Presents - Greatest Bluesmen - vol. 14  C
DTITLE=D1
DYEAR=2017
DGENRE=Blues
TTITLE0=Little Anna Mae
TTITLE1=Good Lookin' Woman
TTITLE2=Muddy Jumps One
TTITLE3=I Can't Be Satisfied
TTITLE4=Streamline Woman
TTITLE5=Mean Red Spider
TTITLE6=Train Fare Home
TTITLE7=Sittin' Here And Drinkin' (Whiskey Blues)
TTITLE8=Last Time I Fool Around With You
TTITLE9=Little Geneva
TTITLE10=Screamin' and Cryin'
TTITLE11=Burying Ground
TTITLE12=Rollin' And Tumblin' Part 1
TTITLE13=Rollin' Stone
TTITLE14=Evan's Shuffle
TTITLE15=Appealing Blues (Hello Little Girl)
TTITLE16=Sad Letter Blues
TTITLE17=All Night Long
TTITLE18=All Night Long (Alternate Take)
TTITLE19=Long Distance Call
TTITLE20=Stuff You Gotta Watch
TTITLE21=Lonesome Day
TTITLE22=Too Young To know
TTITLE23=Who's Gonna Be Your Sweet Man
TTITLE24=Still A Fool
TTITLE25=Trouble No More
TTITLE26=Rock Me
EXTD=
EXTT0=
EXTT1=
EXTT2=
EXTT3=
EXTT4=
EXTT5=
EXTT6=
EXTT7=
EXTT8=
EXTT9=
EXTT10=
EXTT11=
EXTT12=
EXTT13=
EXTT14=
EXTT15=
EXTT16=
EXTT17=
EXTT18=
EXTT19=
EXTT20=
EXTT21=
EXTT22=
EXTT23=
EXTT24=
EXTT25=
EXTT26=
PLAYORDER=
